<svg width="43" height="41" viewBox="0 0 43 41" fill="none" xmlns="http://www.w3.org/2000/svg">
<path fill-rule="evenodd" clip-rule="evenodd" d="M39.624 37.1019L41.3238 6.06474C41.3599 5.40293 41.1461 4.81965 40.69 4.33856C40.2339 3.85746 39.663 3.61221 39.0004 3.61328L13.8033 3.64502C12.6354 3.64636 11.6625 4.4956 11.5033 5.65249L7.24118 36.6316C7.14652 37.3205 7.33449 37.9509 7.79111 38.4753C8.24801 38.9997 8.84635 39.2721 9.54177 39.2729L37.3011 39.2998C38.5376 39.3009 39.5568 38.3368 39.6243 37.1022L39.624 37.1019Z" fill="#1A0D42" stroke="#1A0D42" stroke-width="1.84451" stroke-miterlimit="22.9256" stroke-linejoin="round"/>
<path fill-rule="evenodd" clip-rule="evenodd" d="M33.9898 33.7305C35.7647 29.7336 37.5253 24.6166 38.7935 19.5456C39.9238 15.0259 40.5993 11.3331 41.1837 6.18389C41.2611 5.50165 41.0645 4.88421 40.6068 4.37246C40.1491 3.86071 39.5578 3.59636 38.8712 3.59717L13.728 3.62863C12.5926 3.63025 11.642 4.42759 11.4427 5.54521C9.00656 19.1904 7.38741 23.3099 3.58652 32.1918C3.32594 32.8019 3.37972 33.4455 3.73927 34.0029C4.09854 34.5607 4.66192 34.8766 5.32535 34.8909L31.2716 35.4559C32.468 35.482 33.5044 34.8245 33.9901 33.7305H33.9898Z" fill="white" stroke="#1A0D42" stroke-width="1.84451" stroke-miterlimit="22.9256" stroke-linejoin="round"/>
<path fill-rule="evenodd" clip-rule="evenodd" d="M31.7267 29.4332C36.1881 21.4509 39.2236 12.7369 40.7938 6.50906C40.9754 5.79051 40.8285 5.09536 40.3727 4.511C39.9166 3.92637 39.2779 3.6155 38.5365 3.61631C33.9415 3.62222 29.3471 3.61201 24.7513 3.62088C20.6863 3.60421 17.4956 3.57221 13.6732 3.61738C12.5695 3.63056 11.649 4.38837 11.4248 5.46942C9.29278 15.7383 5.5126 22.4543 1.24998 27.9838C0.881832 28.4611 0.82025 29.0651 1.08352 29.6072C1.34706 30.1491 1.86042 30.4737 2.46334 30.4793C11.1037 30.5595 20.6513 30.8865 29.1787 30.9214C30.2638 30.926 31.1972 30.3809 31.727 29.4335L31.7267 29.4332Z" fill="#6633FF" stroke="#1A0D42" stroke-width="1.84451" stroke-miterlimit="22.9256" stroke-linejoin="round"/>
<path fill-rule="evenodd" clip-rule="evenodd" d="M19.029 4.82599C18.663 3.82293 18.5906 2.271 19.1301 2.271C19.3952 2.271 19.6131 2.73408 19.6733 3.21356C20.3932 3.20522 21.0867 3.22889 21.0867 3.22889C21.0757 2.96642 20.6791 0.157843 19.0421 0.00778687C16.8728 -0.191212 16.5393 3.4693 17.4434 5.79221C17.3816 5.95571 17.3474 6.13266 17.3474 6.31714C17.3474 7.14514 18.0289 7.8169 18.8698 7.8169C19.7104 7.8169 20.3921 7.14541 20.3921 6.31714C20.3921 5.54212 19.7948 4.90425 19.029 4.82572V4.82599Z" fill="#1A0D42"/>
<path fill-rule="evenodd" clip-rule="evenodd" d="M29.8723 4.82599C29.5061 3.82293 29.4337 2.271 29.9732 2.271C30.2386 2.271 30.4561 2.73408 30.5167 3.21356C31.2363 3.20522 31.9298 3.22889 31.9298 3.22889C31.9188 2.96642 31.5221 0.157843 29.8855 0.00778687C27.7159 -0.191212 27.3827 3.4693 28.2865 5.79221C28.2247 5.95571 28.1905 6.13266 28.1905 6.31714C28.1905 7.14514 28.872 7.8169 29.7129 7.8169C30.5535 7.8169 31.2352 7.14541 31.2352 6.31714C31.2352 5.54212 30.6379 4.90425 29.8723 4.82572V4.82599Z" fill="#1A0D42"/>
<path d="M21.0628 20.3696C21.6324 20.5326 23.2421 20.8792 23.5573 21.3084C24.1363 22.0974 24.1726 23.129 23.8222 24.2655C23.059 24.2603 22.2979 24.2491 21.5385 24.2326L19.0801 24.1926C19.5477 22.7684 19.7077 21.3972 19.2403 20.2303C18.8125 19.1614 17.9901 18.6314 16.7472 18.435C16.8397 18.147 16.9502 17.8571 17.0527 17.5689C18.1561 17.4653 19.2223 17.0499 20.2472 16.3111C21.3444 15.52 22.2963 14.3359 22.8576 13.2234C23.073 12.7966 23.2308 12.3696 23.3863 11.938C24.9817 11.9611 26.6039 11.9331 28.1846 11.9942C28.1781 12.0127 28.1714 12.0316 28.1647 12.0504C27.7699 13.1379 27.0234 14.0864 25.9684 14.8396C25.2816 15.3299 23.4045 15.6396 22.6604 15.8088C21.5017 16.0723 20.4585 16.9877 20.0769 18.0774C19.6951 19.167 20.0928 20.0927 21.0628 20.3696Z" fill="white"/>
<path d="M22.3499 11.9128C21.5189 14.2478 19.4502 16.3529 17.4252 16.5454C17.9509 15.1877 18.6098 13.2485 19.0858 11.8896C20.1921 11.9066 21.2449 11.8913 22.3496 11.913L22.3499 11.9128Z" fill="white"/>
<path d="M17.9677 24.1946C18.799 21.8596 18.2404 19.7227 16.369 19.4834C15.9277 20.8422 15.2068 22.7803 14.7155 24.1392C15.8242 24.1489 16.8574 24.1895 17.9677 24.1946Z" fill="white"/>
</svg>
