<svg width="122" height="38" viewBox="0 0 122 38" fill="none" xmlns="http://www.w3.org/2000/svg">
<path fill-rule="evenodd" clip-rule="evenodd" d="M36.6225 34.7037L38.1936 6.01788C38.2269 5.40621 38.0293 4.86711 37.6078 4.42247C37.1862 3.97782 36.6586 3.75115 36.0461 3.75214L12.7579 3.78147C11.6785 3.78271 10.7793 4.56762 10.6321 5.63686L6.69294 34.269C6.60545 34.9058 6.77918 35.4884 7.20121 35.9731C7.62349 36.4577 8.1765 36.7095 8.81924 36.7103L34.4756 36.7351C35.6184 36.7361 36.5604 35.8451 36.6228 34.704L36.6225 34.7037Z" fill="#1A0D42" stroke="#1A0D42" stroke-width="1.70477" stroke-miterlimit="22.9256" stroke-linejoin="round"/>
<path fill-rule="evenodd" clip-rule="evenodd" d="M31.4149 31.588C33.0553 27.8939 34.6825 23.1645 35.8547 18.4777C36.8993 14.3004 37.5236 10.8874 38.0637 6.12825C38.1353 5.49769 37.9536 4.92703 37.5306 4.45405C37.1076 3.98106 36.561 3.73674 35.9265 3.73749L12.688 3.76657C11.6386 3.76806 10.76 4.505 10.5759 5.53795C8.32428 18.1494 6.82779 21.9569 3.31485 30.1658C3.07401 30.7298 3.12372 31.3245 3.45602 31.8398C3.78808 32.3553 4.30878 32.6473 4.92194 32.6605L28.9026 33.1827C30.0084 33.2068 30.9663 32.5991 31.4151 31.588H31.4149Z" fill="white" stroke="#1A0D42" stroke-width="1.70477" stroke-miterlimit="22.9256" stroke-linejoin="round"/>
<path fill-rule="evenodd" clip-rule="evenodd" d="M29.3233 27.6162C33.4467 20.2387 36.2523 12.1848 37.7035 6.42874C37.8713 5.76463 37.7356 5.12214 37.3143 4.58205C36.8928 4.04171 36.3025 3.75439 35.6172 3.75514C31.3704 3.76061 27.124 3.75116 22.8763 3.75936C19.1193 3.74395 16.1703 3.71438 12.6375 3.75613C11.6175 3.76831 10.7667 4.46871 10.5594 5.46787C8.58893 14.9588 5.09513 21.166 1.15543 26.2766C0.815173 26.7178 0.758256 27.276 1.00158 27.7771C1.24516 28.2779 1.71963 28.5779 2.27687 28.5831C10.2626 28.6572 19.087 28.9594 26.9684 28.9917C27.9712 28.9959 28.8339 28.4921 29.3236 27.6165L29.3233 27.6162Z" fill="#6633FF" stroke="#1A0D42" stroke-width="1.70477" stroke-miterlimit="22.9256" stroke-linejoin="round"/>
<path fill-rule="evenodd" clip-rule="evenodd" d="M17.5873 4.87304C17.2491 3.94597 17.1822 2.51161 17.6808 2.51161C17.9259 2.51161 18.1272 2.93961 18.1829 3.38277C18.8482 3.37506 19.4892 3.39693 19.4892 3.39693C19.479 3.15435 19.1124 0.558544 17.5995 0.419856C15.5945 0.235932 15.2863 3.61913 16.1219 5.76607C16.0648 5.91718 16.0332 6.08073 16.0332 6.25123C16.0332 7.0165 16.663 7.63737 17.4402 7.63737C18.2172 7.63737 18.8472 7.01675 18.8472 6.25123C18.8472 5.53492 18.2952 4.94537 17.5873 4.8728V4.87304Z" fill="#1A0D42"/>
<path fill-rule="evenodd" clip-rule="evenodd" d="M27.6094 4.87304C27.2709 3.94597 27.2041 2.51161 27.7027 2.51161C27.948 2.51161 28.149 2.93961 28.205 3.38277C28.8701 3.37506 29.5111 3.39693 29.5111 3.39693C29.5009 3.15435 29.1343 0.558544 27.6216 0.419856C25.6164 0.235932 25.3084 3.61913 26.1438 5.76607C26.0866 5.91718 26.055 6.08073 26.055 6.25123C26.055 7.0165 26.6849 7.63737 27.4621 7.63737C28.239 7.63737 28.8691 7.01675 28.8691 6.25123C28.8691 5.53492 28.3171 4.94537 27.6094 4.8728V4.87304Z" fill="#1A0D42"/>
<path d="M19.4672 19.2389C19.9936 19.3896 21.4814 19.7099 21.7727 20.1066C22.3078 20.8358 22.3414 21.7893 22.0175 22.8396C21.3121 22.8349 20.6087 22.8245 19.9068 22.8093L17.6346 22.7723C18.0669 21.456 18.2148 20.1886 17.7828 19.1102C17.3873 18.1222 16.6273 17.6323 15.4785 17.4509C15.564 17.1847 15.6662 16.9168 15.7609 16.6503C16.7806 16.5546 17.7661 16.1706 18.7133 15.4879C19.7274 14.7567 20.6072 13.6623 21.126 12.6341C21.325 12.2397 21.4709 11.845 21.6146 11.446C23.0892 11.4674 24.5884 11.4416 26.0494 11.498C26.0434 11.5151 26.0372 11.5325 26.031 11.5499C25.6661 12.5551 24.9762 13.4317 24.0011 14.1278C23.3664 14.5809 21.6315 14.8673 20.9438 15.0236C19.8728 15.2672 18.9087 16.1132 18.556 17.1203C18.2031 18.1274 18.5707 18.9829 19.4672 19.2389Z" fill="white"/>
<path d="M20.6571 11.4227C19.8891 13.5809 17.977 15.5265 16.1055 15.7044C16.5914 14.4495 17.2003 12.6573 17.6402 11.4014C18.6628 11.417 19.6358 11.4029 20.6568 11.423L20.6571 11.4227Z" fill="white"/>
<path d="M16.6065 22.7746C17.3747 20.6164 16.8585 18.6415 15.1289 18.4203C14.721 19.6762 14.0547 21.4675 13.6006 22.7234C14.6253 22.7323 15.5803 22.7698 16.6065 22.7746Z" fill="white"/>
<path d="M49.6084 26.4875V16.8731H52.7189V14.8437H44.3188V16.8731H47.4294V26.4875H49.6084Z" fill="#1A0D42"/>
<path d="M54.2827 16.923H56.495V14.8437H54.2827V16.923ZM54.3993 26.4875H56.4118V18.1707H54.3993V26.4875Z" fill="#1A0D42"/>
<path d="M57.9253 22.279C57.9253 24.9903 59.7551 26.7369 62.4998 26.7538C65.1612 26.7371 66.5752 25.1069 66.8411 23.4767H64.6621C64.6124 23.6599 64.0134 24.8241 62.4332 24.8241C60.9029 24.8074 59.9383 23.7429 59.9383 22.2623C59.9549 20.7653 60.8698 19.8338 62.3668 19.8338C63.9801 19.8338 64.5625 20.9982 64.6124 21.1645H66.7914C66.6249 19.6175 65.1614 17.921 62.4168 17.921C59.722 17.921 57.9253 19.5678 57.9253 22.279Z" fill="#1A0D42"/>
<path d="M71.0498 20.222C70.584 20.6212 70.2845 21.3365 70.035 21.9047L69.6858 21.7548C69.9517 21.1866 70.2845 20.4879 70.2845 19.8698V14.411H68.2388V26.4871H70.2845L70.2512 23.3045L71.0665 22.5864L74.2603 26.4871H76.8054L72.4471 21.3805L75.9404 18.1703H73.3953L71.0498 20.2218V20.222Z" fill="#1A0D42"/>
<path d="M82.5107 26.7538C85.1221 26.7538 86.3532 24.9739 86.6027 24.109H84.2739C84.1073 24.5248 83.4253 25.007 82.3108 25.007C80.5976 25.007 79.766 23.8595 79.766 22.9446L86.7688 22.9612C86.7854 22.8113 86.7854 22.4122 86.7854 22.2461C86.8021 19.9503 85.0056 17.9212 82.1113 17.9212C79.3002 17.9212 77.3208 19.801 77.3208 22.2792C77.3208 24.7577 79.1337 26.754 82.5107 26.754V26.7538ZM79.766 21.5805C79.766 20.5324 80.7475 19.5345 82.1612 19.5345C83.5583 19.5345 84.4066 20.4328 84.4066 21.5805H79.766Z" fill="#1A0D42"/>
<path d="M89.5468 23.6929C89.5468 25.0236 90.079 26.4875 91.6428 26.4875H93.6555V24.5911H92.674C91.8921 24.5911 91.5762 24.3916 91.5762 23.6929V19.9503H93.7385V18.1707H91.5762V15.0269H89.5468V18.1707H87.8833V19.9503H89.5468V23.6929Z" fill="#1A0D42"/>
<path d="M100.01 26.7538C102.621 26.7538 103.852 24.9739 104.102 24.109H101.773C101.606 24.5248 100.924 25.007 99.8099 25.007C98.0966 25.007 97.265 23.8595 97.265 22.9446L104.268 22.9612C104.284 22.8113 104.284 22.4122 104.284 22.2461C104.301 19.9503 102.505 17.9212 99.6103 17.9212C96.7992 17.9212 94.8198 19.801 94.8198 22.2792C94.8198 24.7577 96.6327 26.754 100.01 26.754V26.7538ZM97.265 21.5805C97.265 20.5324 98.2465 19.5345 99.6602 19.5345C101.057 19.5345 101.906 20.4328 101.906 21.5805H97.265Z" fill="#1A0D42"/>
<path d="M111.271 25.9718C111.603 25.6559 111.72 25.0569 111.869 24.6244L112.219 24.7577C112.069 25.1901 111.77 25.7056 111.753 26.1547V26.4875H113.782V18.1707H111.753V22.562C111.753 24.2089 110.755 24.9406 109.541 24.9406C108.427 24.9406 107.645 24.2919 107.645 22.562V18.1707H105.599V23.8761C105.599 25.7558 107.179 26.7371 108.809 26.7371C109.957 26.7371 110.589 26.6374 111.271 25.9718H111.271Z" fill="#1A0D42"/>
<path d="M118.574 18.7526C118.058 19.1354 117.792 19.967 117.542 20.5491L117.193 20.3992C117.442 19.8171 117.792 19.0518 117.792 18.4198V18.1705H115.762V26.4873H117.792V22.8611C117.792 20.5488 119.937 19.8171 122 19.8171V17.9207C120.37 17.9207 119.455 18.0703 118.573 18.7523L118.574 18.7526Z" fill="#1A0D42"/>
</svg>
