<svg width="43" height="41" viewBox="0 0 43 41" fill="none" xmlns="http://www.w3.org/2000/svg">
<path fill-rule="evenodd" clip-rule="evenodd" d="M39.624 37.1016L41.3238 6.06439C41.3598 5.40258 41.146 4.8193 40.69 4.33821C40.2339 3.85711 39.663 3.61186 39.0003 3.61293L13.8033 3.64467C12.6354 3.64601 11.6624 4.49525 11.5032 5.65214L7.24113 36.6312C7.14647 37.3202 7.33444 37.9505 7.79107 38.4749C8.24796 38.9993 8.8463 39.2717 9.54172 39.2725L37.301 39.2994C38.5375 39.3005 39.5567 38.3364 39.6242 37.1018L39.624 37.1016Z" fill="#1A0D42" stroke="#1A0D42" stroke-width="1.84451" stroke-miterlimit="22.9256" stroke-linejoin="round"/>
<path fill-rule="evenodd" clip-rule="evenodd" d="M33.9898 33.7304C35.7646 29.7335 37.5252 24.6165 38.7935 19.5455C39.9237 15.0258 40.5992 11.333 41.1836 6.1838C41.261 5.50156 41.0645 4.88412 40.6068 4.37237C40.1491 3.86062 39.5577 3.59627 38.8712 3.59708L13.7279 3.62854C12.5925 3.63016 11.6419 4.4275 11.4426 5.54512C9.00649 19.1903 7.38733 23.3098 3.58645 32.1917C3.32586 32.8018 3.37965 33.4454 3.73919 34.0028C4.09847 34.5606 4.66185 34.8765 5.32527 34.8908L31.2715 35.4558C32.468 35.4819 33.5044 34.8244 33.99 33.7304H33.9898Z" fill="white" stroke="#1A0D42" stroke-width="1.84451" stroke-miterlimit="22.9256" stroke-linejoin="round"/>
<path fill-rule="evenodd" clip-rule="evenodd" d="M31.7268 29.4332C36.1882 21.4509 39.2237 12.7369 40.7939 6.50898C40.9755 5.79043 40.8286 5.09528 40.3728 4.51092C39.9167 3.92629 39.278 3.61543 38.5366 3.61623C33.9416 3.62215 29.3472 3.61193 24.7514 3.6208C20.6864 3.60413 17.4957 3.57213 13.6733 3.61731C12.5696 3.63048 11.6491 4.3883 11.4249 5.46935C9.29288 15.7382 5.5127 22.4542 1.25008 27.9837C0.881935 28.461 0.820353 29.065 1.08362 29.6072C1.34716 30.149 1.86053 30.4736 2.46344 30.4793C11.1038 30.5594 20.6514 30.8864 29.1788 30.9214C30.2639 30.9259 31.1973 30.3808 31.7271 29.4334L31.7268 29.4332Z" fill="#6633FF" stroke="#1A0D42" stroke-width="1.84451" stroke-miterlimit="22.9256" stroke-linejoin="round"/>
<path fill-rule="evenodd" clip-rule="evenodd" d="M19.0289 4.82575C18.6629 3.82268 18.5906 2.27076 19.13 2.27076C19.3952 2.27076 19.613 2.73383 19.6732 3.21331C20.3931 3.20498 21.0867 3.22864 21.0867 3.22864C21.0757 2.96618 20.679 0.157599 19.0421 0.00754273C16.8727 -0.191457 16.5393 3.46906 17.4434 5.79197C17.3815 5.95547 17.3474 6.13242 17.3474 6.3169C17.3474 7.14489 18.0288 7.81665 18.8697 7.81665C19.7104 7.81665 20.3921 7.14516 20.3921 6.3169C20.3921 5.54187 19.7948 4.904 19.0289 4.82548V4.82575Z" fill="#1A0D42"/>
<path fill-rule="evenodd" clip-rule="evenodd" d="M29.8723 4.82575C29.5061 3.82268 29.4337 2.27076 29.9732 2.27076C30.2386 2.27076 30.4561 2.73383 30.5167 3.21331C31.2363 3.20498 31.9298 3.22864 31.9298 3.22864C31.9188 2.96618 31.5221 0.157599 29.8855 0.00754273C27.7159 -0.191457 27.3827 3.46906 28.2865 5.79197C28.2247 5.95547 28.1905 6.13242 28.1905 6.3169C28.1905 7.14489 28.8719 7.81665 29.7129 7.81665C30.5535 7.81665 31.2352 7.14516 31.2352 6.3169C31.2352 5.54187 30.6379 4.904 29.8723 4.82548V4.82575Z" fill="#1A0D42"/>
<path d="M21.0629 20.3692C21.6325 20.5321 23.2422 20.8788 23.5574 21.308C24.1364 22.097 24.1727 23.1286 23.8223 24.265C23.0591 24.2599 22.2981 24.2486 21.5386 24.2322L19.0802 24.1921C19.5478 22.7679 19.7078 21.3967 19.2405 20.2299C18.8126 19.1609 17.9903 18.6309 16.7473 18.4346C16.8398 18.1466 16.9503 17.8567 17.0528 17.5684C18.1562 17.4649 19.2224 17.0494 20.2473 16.3107C21.3445 15.5195 22.2964 14.3355 22.8577 13.223C23.0731 12.7962 23.2309 12.3691 23.3864 11.9375C24.9819 11.9607 26.604 11.9327 28.1847 11.9937C28.1782 12.0123 28.1715 12.0311 28.1648 12.0499C27.77 13.1374 27.0235 14.0859 25.9685 14.8392C25.2817 15.3294 23.4046 15.6392 22.6606 15.8083C21.5018 16.0719 20.4587 16.9873 20.0771 18.0769C19.6952 19.1666 20.0929 20.0922 21.0629 20.3692Z" fill="white"/>
<path d="M22.35 11.9123C21.519 14.2473 19.4502 16.3524 17.4253 16.545C17.951 15.1872 18.6099 13.248 19.0859 11.8892C20.1922 11.9061 21.245 11.8908 22.3497 11.9126L22.35 11.9123Z" fill="white"/>
<path d="M17.9679 24.1945C18.7991 21.8595 18.2406 19.7227 16.3692 19.4834C15.9279 20.8422 15.2069 22.7803 14.7156 24.1391C15.8243 24.1488 16.8575 24.1894 17.9679 24.1945Z" fill="white"/>
</svg>
